<?xml version="1.0" encoding="UTF-8" standalone="no"?>
<!DOCTYPE svg PUBLIC "-//W3C//DTD SVG 1.1//EN"
 "http://www.w3.org/Graphics/SVG/1.1/DTD/svg11.dtd">
<!-- Generated by graphviz version 2.38.0 (20140413.2041)
 -->
<!-- Title: %3 Pages: 1 -->
<svg width="98pt" height="215pt"
 viewBox="0.00 0.00 97.98 215.38" xmlns="http://www.w3.org/2000/svg" xmlns:xlink="http://www.w3.org/1999/xlink">
<g id="graph0" class="graph" transform="scale(1 1) rotate(0) translate(4 211.38)">
<title>%3</title>
<polygon fill="white" stroke="none" points="-4,4 -4,-211.38 93.9767,-211.38 93.9767,4 -4,4"/>
<!-- A -->
<g id="node1" class="node"><title>A</title>
<polygon fill="lightgray" stroke="black" points="48.9767,-207.38 25.9767,-207.38 25.9767,-189.38 48.9767,-189.38 48.9767,-207.38"/>
<text text-anchor="middle" x="37.4767" y="-196.18" font-family="Times New Roman,serif" font-size="9.00">A</text>
</g>
<!-- 121 -->
<g id="node4" class="node"><title>121</title>
<ellipse fill="white" stroke="black" cx="37.4767" cy="-132.167" rx="21.4286" ry="21.4286"/>
<text text-anchor="middle" x="37.4767" y="-129.967" font-family="Times New Roman,serif" font-size="9.00">121</text>
</g>
<!-- A&#45;&gt;121 -->
<g id="edge1" class="edge"><title>A&#45;&gt;121</title>
<path fill="none" stroke="red" stroke-width="0.419949" d="M37.4767,-189.247C37.4767,-182.704 37.4767,-173.075 37.4767,-163.636"/>
<polygon fill="red" stroke="red" stroke-width="0.419949" points="40.9768,-163.622 37.4767,-153.622 33.9768,-163.622 40.9768,-163.622"/>
</g>
<!-- B -->
<g id="node2" class="node"><title>B</title>
<polygon fill="lightgray" stroke="black" points="89.9767,-207.38 66.9767,-207.38 66.9767,-189.38 89.9767,-189.38 89.9767,-207.38"/>
<text text-anchor="middle" x="78.4767" y="-196.18" font-family="Times New Roman,serif" font-size="9.00">B</text>
</g>
<!-- A XOR B -->
<g id="node3" class="node"><title>A XOR B</title>
<ellipse fill="lightblue" stroke="black" cx="37.4767" cy="-37.4767" rx="37.4533" ry="37.4533"/>
<text text-anchor="middle" x="37.4767" y="-35.2767" font-family="Times New Roman,serif" font-size="9.00">A XOR B</text>
</g>
<!-- 121&#45;&gt;A XOR B -->
<g id="edge2" class="edge"><title>121&#45;&gt;A XOR B</title>
<path fill="none" stroke="green" stroke-width="0.619035" d="M37.4767,-110.596C37.4767,-103 37.4767,-94.0512 37.4767,-85.0886"/>
<polygon fill="green" stroke="green" stroke-width="0.619035" points="40.9768,-85.0353 37.4767,-75.0353 33.9768,-85.0353 40.9768,-85.0353"/>
</g>
</g>
</svg>
